<?xml version="1.0" standalone="no"?>
<!DOCTYPE svg PUBLIC "-//W3C//DTD SVG 20010904//EN"
 "http://www.w3.org/TR/2001/REC-SVG-20010904/DTD/svg10.dtd">
<svg version="1.0" xmlns="http://www.w3.org/2000/svg"
 width="1024.000000pt" height="1024.000000pt" viewBox="0 0 1024.000000 1024.000000"
 preserveAspectRatio="xMidYMid meet">

<g transform="translate(0.000000,1024.000000) scale(0.100000,-0.100000)"
fill="#ffff" stroke="none">
<path d="M5075 8493 c-397 -32 -679 -94 -1000 -220 -639 -252 -1167 -680
-1538 -1248 -811 -1243 -649 -2892 387 -3954 541 -553 1193 -872 1991 -973
150 -19 580 -16 740 6 771 101 1423 425 1951 968 488 502 786 1122 881 1835
24 178 23 588 0 768 -80 602 -306 1138 -678 1606 -96 121 -299 331 -414 429
-538 457 -1182 723 -1889 780 -119 9 -336 11 -431 3z m-1757 -1770 c81 -38
169 -165 223 -321 54 -156 121 -470 214 -1010 19 -106 36 -200 39 -210 10 -31
56 -374 56 -413 0 -59 16 -46 29 24 7 34 30 132 51 217 22 85 51 209 65 275
14 66 35 154 46 197 10 42 19 88 19 102 0 22 4 26 30 26 17 0 30 3 30 8 0 4
-9 86 -20 182 -46 396 -60 540 -60 628 0 68 -4 99 -16 117 -15 23 -15 28 6 72
27 57 48 77 106 99 80 31 191 0 215 -59 14 -32 14 -56 3 -204 -6 -84 5 -178
76 -683 16 -113 50 -353 75 -535 26 -181 58 -383 71 -449 13 -65 24 -139 24
-164 0 -58 16 -44 23 18 2 25 20 126 40 225 42 207 79 408 107 580 11 66 31
174 45 240 14 66 34 181 45 255 11 74 31 192 44 262 14 69 31 170 37 223 9 86
8 99 -7 116 -21 23 -14 52 25 106 68 94 204 111 284 35 76 -72 83 -100 216
-957 22 -143 56 -361 75 -485 52 -333 76 -506 76 -549 0 -92 15 -69 51 80 46
193 99 404 146 582 l37 139 44 -4 44 -3 -6 75 c-4 41 -18 165 -31 275 -35 289
-45 405 -46 535 0 113 -12 180 -30 180 -15 0 -10 28 11 69 74 145 270 146 335
1 18 -39 18 -44 2 -88 -29 -82 -29 -121 -3 -302 14 -96 32 -236 41 -310 19
-167 88 -613 120 -780 39 -198 145 -836 145 -866 0 -18 3 -25 10 -18 5 5 23
115 40 244 17 129 42 294 56 366 31 167 98 618 124 838 11 94 27 209 35 256 8
47 24 155 35 240 11 85 24 191 30 234 10 77 9 81 -14 105 l-24 26 29 51 c16
29 48 65 71 80 35 24 51 29 104 29 79 0 108 -20 148 -99 26 -51 28 -62 18 -89
-16 -44 -35 -169 -82 -542 -55 -428 -91 -688 -140 -1000 -23 -143 -50 -323
-61 -400 -40 -287 -76 -460 -110 -527 -28 -56 -144 -169 -201 -197 -99 -47
-208 -23 -268 61 -41 56 -64 137 -100 353 -29 169 -74 413 -135 725 -56 285
-72 353 -79 335 -4 -10 -13 -95 -22 -189 -21 -252 -153 -1095 -185 -1194 -16
-47 -64 -99 -105 -112 -45 -15 -115 -5 -148 21 -38 30 -61 108 -90 304 -24
162 -58 361 -130 780 -13 77 -41 244 -61 370 -64 391 -73 440 -78 425 -2 -8
-12 -53 -20 -100 -9 -47 -32 -161 -52 -255 -20 -93 -52 -264 -71 -380 -19
-115 -39 -228 -44 -250 -5 -22 -39 -200 -75 -395 -37 -195 -75 -375 -86 -400
-51 -115 -151 -158 -256 -111 -58 27 -88 84 -118 223 -36 168 -105 533 -131
698 -13 80 -35 201 -50 270 -15 69 -32 152 -38 185 -15 74 -14 79 -61 -230
-20 -126 -49 -306 -65 -400 -17 -93 -48 -282 -71 -419 -22 -137 -46 -264 -54
-282 -7 -18 -27 -40 -44 -48 -41 -22 -119 -20 -157 3 -56 34 -54 26 -159 706
-56 360 -197 1180 -234 1357 -49 233 -72 319 -110 403 -45 99 -124 205 -154
205 -28 0 -47 12 -47 29 1 32 65 136 99 158 42 29 126 31 179 6z"/>
</g>
</svg>
